<mxfile host="app.diagrams.net" modified="2022-04-27T04:02:12.272Z" agent="5.0 (Windows NT 10.0; Win64; x64) AppleWebKit/537.36 (KHTML, like Gecko) Chrome/100.0.4896.127 Safari/537.36" etag="8gjBwUmrCig1HunA74SC" version="17.4.6" type="github">
  <diagram id="MZ8gK1X39FXPBPDZzGN7" name="Page-1">
    <mxGraphModel dx="925" dy="536" grid="1" gridSize="10" guides="1" tooltips="1" connect="1" arrows="1" fold="1" page="1" pageScale="1" pageWidth="827" pageHeight="1169" math="0" shadow="0">
      <root>
        <mxCell id="0" />
        <mxCell id="1" parent="0" />
        <mxCell id="au5QJvho7mGoSFGisxVg-1" value="render loop" style="rounded=1;whiteSpace=wrap;html=1;" vertex="1" parent="1">
          <mxGeometry x="150" y="200" width="120" height="60" as="geometry" />
        </mxCell>
        <mxCell id="au5QJvho7mGoSFGisxVg-2" value="class" style="rounded=1;whiteSpace=wrap;html=1;" vertex="1" parent="1">
          <mxGeometry x="150" y="10" width="120" height="60" as="geometry" />
        </mxCell>
        <mxCell id="au5QJvho7mGoSFGisxVg-5" style="edgeStyle=orthogonalEdgeStyle;rounded=0;orthogonalLoop=1;jettySize=auto;html=1;entryX=0;entryY=0.5;entryDx=0;entryDy=0;" edge="1" parent="1" source="au5QJvho7mGoSFGisxVg-3" target="au5QJvho7mGoSFGisxVg-4">
          <mxGeometry relative="1" as="geometry" />
        </mxCell>
        <mxCell id="au5QJvho7mGoSFGisxVg-7" style="edgeStyle=orthogonalEdgeStyle;rounded=0;orthogonalLoop=1;jettySize=auto;html=1;entryX=0;entryY=0.5;entryDx=0;entryDy=0;" edge="1" parent="1" source="au5QJvho7mGoSFGisxVg-3" target="au5QJvho7mGoSFGisxVg-6">
          <mxGeometry relative="1" as="geometry" />
        </mxCell>
        <mxCell id="au5QJvho7mGoSFGisxVg-3" value="bbox" style="rounded=1;whiteSpace=wrap;html=1;" vertex="1" parent="1">
          <mxGeometry x="310" y="10" width="120" height="60" as="geometry" />
        </mxCell>
        <mxCell id="au5QJvho7mGoSFGisxVg-4" value="center position" style="rounded=1;whiteSpace=wrap;html=1;" vertex="1" parent="1">
          <mxGeometry x="480" y="10" width="120" height="60" as="geometry" />
        </mxCell>
        <mxCell id="au5QJvho7mGoSFGisxVg-6" value="text" style="rounded=1;whiteSpace=wrap;html=1;" vertex="1" parent="1">
          <mxGeometry x="480" y="90" width="120" height="60" as="geometry" />
        </mxCell>
      </root>
    </mxGraphModel>
  </diagram>
</mxfile>
